<svg height="58" viewBox="0 0 69 58" width="69" xmlns="http://www.w3.org/2000/svg" xmlns:xlink="http://www.w3.org/1999/xlink"><mask id="a" fill="#fff"><path d="m0 0h70v70h-70z" fill="#fff" fill-rule="evenodd"/></mask><g fill="none" transform="translate(0 -6)"><path d="m64.13 6.04c2.56 0 4.71 2.1 4.71 4.71v27.11c0 2.56-2.09 4.71-4.7 4.71h-4.2v5.82c0 .87-.7 1.51-1.5 1.51-.42 0-.76-.17-1.06-.46l-6.8-6.87h-31.08a4.73 4.73 0 0 1 -4.72-4.71v-27.1c0-2.57 2.1-4.72 4.72-4.72zm-23.85 24.57a2.52 2.52 0 0 0 -2.5 2.5 2.52 2.52 0 0 0 2.5 2.52 2.52 2.52 0 0 0 2.5-2.51 2.52 2.52 0 0 0 -2.5-2.51zm.15-17.61c-3.73 0-7.15 2.66-7.15 5.66 0 1.22.92 1.86 1.99 1.86 2.96 0 1.43-4.04 5.34-4.04 1.84 0 2.94.98 2.94 2.63 0 3-5.35 3.83-5.35 7.47 0 .97.64 2.04 1.96 2.04 2.02 0 1.77-1.5 2.5-2.57.98-1.43 5.54-2.96 5.54-6.94 0-4.3-3.85-6.11-7.77-6.11z" fill="#eb5a2b" mask="url(#a)"/><path d="m10.68 24.64h-6.48c-2.3 0-4.2 1.9-4.2 4.19v24.2a4.16 4.16 0 0 0 4.2 4.35h3.7v5.23c0 .7.63 1.34 1.35 1.34.4 0 .7-.16.95-.4l6.09-6.08h26.9c2.29 0 4.18-1.9 4.18-4.2v-6.01h-28.7a8 8 0 0 1 -8-8v-14.62z" fill="#bdc3c7" mask="url(#a)"/></g></svg>