<svg height="70" viewBox="0 0 70 70" width="70" xmlns="http://www.w3.org/2000/svg" xmlns:xlink="http://www.w3.org/1999/xlink"><mask id="a" fill="#fff"><path d="m0 0h70v70h-70z" fill="#fff" fill-rule="evenodd"/></mask><g fill="none"><path d="m23.22 66.96-3.56-14.3a11.59 11.59 0 0 0 3.63-8.42c0-6.42-5.23-11.64-11.64-11.64a11.66 11.66 0 0 0 -11.65 11.64c0 3.31 1.41 6.3 3.64 8.41l-3.57 14.31c-.22.88.1 1.82.8 2.39a2.34 2.34 0 0 0 2.5.26l8.28-4.14 8.27 4.14a2.35 2.35 0 0 0 2.5-.26 2.34 2.34 0 0 0 .8-2.39zm-11.57-15.73a7 7 0 0 1 -6.99-6.99 7 7 0 0 1 6.99-6.99 7 7 0 0 1 6.98 6.99 7 7 0 0 1 -6.98 6.99z" fill="#eb5a2b" mask="url(#a)"/><path d="m51.23 23.29a4.67 4.67 0 0 1 -4.66-4.66v-18.63h-27.94a4.67 4.67 0 0 0 -4.66 4.66v23.52a16.27 16.27 0 0 1 13.97 16.06c0 3.52-1.11 6.87-3.18 9.65l2.82 11.3h37.62a4.66 4.66 0 0 0 4.66-4.65v-37.26h-18.63zm-25.61-4.66a2.33 2.33 0 0 1 0-4.66h13.97a2.33 2.33 0 0 1 0 4.66zm32.6 27.94h-23.29a2.33 2.33 0 0 1 0-4.66h23.29a2.33 2.33 0 0 1 0 4.66zm0-18.63a2.33 2.33 0 0 1 0 4.66h-27.95a2.33 2.33 0 0 1 0-4.66h27.94zm-6.99-27.94 18.63 18.63h-18.63z" fill="#bebebe" mask="url(#a)"/></g></svg>