<svg height="53" viewBox="0 0 68 53" width="68" xmlns="http://www.w3.org/2000/svg" xmlns:xlink="http://www.w3.org/1999/xlink"><mask id="a" fill="#fff"><path d="m0 0h70v70h-70z" fill="#fff" fill-rule="evenodd"/></mask><g fill="none" transform="translate(-1 -10)"><path d="m57.39 38a4 4 0 0 1 3.66 2.39l7.48 17a4 4 0 0 1 -3.66 5.61h-59.74a4 4 0 0 1 -3.66-5.61l7.48-17a4 4 0 0 1 3.65-2.39h8.9a45.16 45.16 0 0 0 3.4 4.87 55.55 55.55 0 0 0 4.9 5.4 40.1 40.1 0 0 0 2.29 2.09 5.44 5.44 0 0 0 6.78 0 40.33 40.33 0 0 0 2.3-2.08 55.55 55.55 0 0 0 4.9-5.4 45.16 45.16 0 0 0 3.39-4.88z" fill="#bdc3c7" mask="url(#a)"/><path d="m35.49 10c8 0 14.49 6.49 14.49 14.49 0 11.6-13.1 22.35-13.1 22.35a2.3 2.3 0 0 1 -2.78 0s-13.1-10.75-13.1-22.35c0-8 6.49-14.49 14.49-14.49zm0 7.2a7.3 7.3 0 1 0 .01 14.6 7.3 7.3 0 0 0 -.01-14.6z" fill="#eb5a2b" mask="url(#a)"/></g></svg>